# xmcd
# 
# Track frame offsets:
#     150
#     17544
#     33425
#     50734
#     68082
#     85209
#     100298
#     114933
#     132389
#     146553
#     165836
# 
# Disc length: 2399
# 
# Revision: 2
# Processed by: cddbd v1.5.2PL0 Copyright (c) Steve Scherf et al.
# Submitted via: fre:ac v1.0.17
# 
DISCID=8a095d0b
DTITLE=Beth Rowley - Little Dreamer
DYEAR=2008
DGENRE=Blues
TTITLE0=Nobody's Fault But Mine
TTITLE1=Sweet Hours
TTITLE2=So Sublime
TTITLE3=I Shall Be Released
TTITLE4=Only One Cloud
TTITLE5=When The Rains Came
TTITLE6=Oh My Life
TTITLE7=Angel Flying Too Close To The Ground (featuring Duke Special)
TTITLE8=Almost Persuaded
TTITLE9=You Never Called Me Tonight
TTITLE10=Beautiful Tomorrow
EXTD=
EXTT0=
EXTT1=
EXTT2=
EXTT3=
EXTT4=
EXTT5=
EXTT6=
EXTT7=
EXTT8=
EXTT9=
EXTT10=
PLAYORDER=
